<svg xmlns="http://www.w3.org/2000/svg" viewBox="0 0 14 14"><defs><style>.cls-1{fill:#0073cc}.cls-2{fill:#fff}</style></defs><g id="Group_614" data-name="Group 614" transform="translate(-716 -199)"><rect id="Rectangle_386" data-name="Rectangle 386" class="cls-1" width="14" height="14" rx="2" transform="translate(716 199)"/><path id="Path_1831" data-name="Path 1831" class="cls-2" d="M-10.966-5.125q0-.884-1.264-.884v-.908a1.684 1.684 0 0 0 .953-.216.747.747 0 0 0 .311-.658v-1.477a1.224 1.224 0 0 1 .516-1.09 2.776 2.776 0 0 1 1.55-.35v.865a1.352 1.352 0 0 0-.786.221.709.709 0 0 0-.245.587v1.411q0 .946-1.088 1.131v.057q1.088.171 1.088 1.126v1.42a.719.719 0 0 0 .242.589 1.278 1.278 0 0 0 .789.209v.87a2.706 2.706 0 0 1-1.58-.373 1.377 1.377 0 0 1-.482-1.176zm5.259 1.459a1.259 1.259 0 0 1-.473 1.088 2.634 2.634 0 0 1-1.513.356v-.87a1.226 1.226 0 0 0 .7-.183.7.7 0 0 0 .252-.615v-1.245a1.387 1.387 0 0 1 .252-.889 1.311 1.311 0 0 1 .836-.413v-.057q-1.088-.185-1.088-1.131v-1.411a.755.755 0 0 0-.216-.587 1.175 1.175 0 0 0-.739-.221v-.865a2.493 2.493 0 0 1 1.523.363 1.422 1.422 0 0 1 .463 1.19v1.364a.748.748 0 0 0 .3.675 1.635 1.635 0 0 0 .9.2v.908a1.623 1.623 0 0 0-.891.2.755.755 0 0 0-.306.682z" transform="translate(731.23 212.708)"/></g></svg>