<svg xmlns="http://www.w3.org/2000/svg" viewBox="0 0 14 14"><defs><style>.cls-1{fill:#0ac12d}.cls-2{fill:#fff}</style></defs><g id="Group_611" data-name="Group 611" transform="translate(-716 -169)"><rect id="Rectangle_386" data-name="Rectangle 386" class="cls-1" width="14" height="14" rx="2" transform="translate(716 169)"/><path id="Path_1839" data-name="Path 1839" class="cls-2" d="M2-9.639v1.172a2.373 2.373 0 0 0-1.024.507 2.359 2.359 0 0 0-.563.839A3.257 3.257 0 0 0 .2-5.878a1.585 1.585 0 0 1 1.28.492A1.594 1.594 0 0 1 1.9-4.34a1.473 1.473 0 0 1-.46 1.1 1.489 1.489 0 0 1-1.069.445 1.722 1.722 0 0 1-1.365-.68 2.818 2.818 0 0 1-.567-1.862 4.339 4.339 0 0 1 .45-1.951A4.758 4.758 0 0 1 .113-8.842 3.63 3.63 0 0 1 2-9.639zm-4.586 0v1.172a2.373 2.373 0 0 0-1.024.507 2.359 2.359 0 0 0-.563.839 3.257 3.257 0 0 0-.211 1.243 1.583 1.583 0 0 1 1.284.492 1.6 1.6 0 0 1 .414 1.046 1.473 1.473 0 0 1-.46 1.1 1.489 1.489 0 0 1-1.069.445 1.726 1.726 0 0 1-1.36-.68 2.8 2.8 0 0 1-.572-1.862A4.339 4.339 0 0 1-5.7-7.285a4.758 4.758 0 0 1 1.228-1.557 3.63 3.63 0 0 1 1.889-.797z" transform="translate(725.146 182.639)"/></g></svg>